PathFileType	4	(X/Y/Z)	E:/Microgravity/Neeraj_13_07_24_t02 _without_weight_pp.trc	
DataRate	CameraRate	NumFrames	NumMarkers	Units	OrigDataRate	OrigDataStartFrame	OrigNumFrames	
120.00	120.00	37	5	m	120.00	5294	7058	
Frame#	Time	RHAND			r_radius_styloid			RWRB			r_humerus_epicondyle			r_acromion			
		X1	Y1	Z1	X2	Y2	Z2	X3	Y3	Z3	X4	Y4	Z4	X5	Y5	Z5	

5294	44.108	0.32763	1.09117	0.24421	0.23074	1.10910	0.29576	0.23132	1.04777	0.21734	0.00746	1.16436	0.27842	-0.01044	1.51865	0.19401 
5295	44.117	0.32753	1.09054	0.24419	0.23068	1.10864	0.29575	0.23115	1.04730	0.21734	0.00748	1.16428	0.27840	-0.01045	1.51865	0.19399 
5296	44.125	0.32744	1.08991	0.24418	0.23063	1.10819	0.29574	0.23098	1.04684	0.21735	0.00750	1.16421	0.27838	-0.01047	1.51864	0.19398 
5297	44.133	0.32735	1.08927	0.24418	0.23057	1.10772	0.29574	0.23081	1.04637	0.21735	0.00752	1.16413	0.27837	-0.01049	1.51864	0.19397 
5298	44.142	0.32725	1.08862	0.24417	0.23051	1.10726	0.29573	0.23064	1.04590	0.21734	0.00754	1.16404	0.27836	-0.01051	1.51863	0.19395 
5299	44.150	0.32715	1.08796	0.24416	0.23044	1.10678	0.29573	0.23046	1.04542	0.21733	0.00757	1.16395	0.27836	-0.01053	1.51863	0.19394 
5300	44.158	0.32704	1.08729	0.24416	0.23036	1.10630	0.29573	0.23026	1.04494	0.21732	0.00759	1.16386	0.27836	-0.01055	1.51862	0.19393 
5301	44.167	0.32693	1.08662	0.24416	0.23028	1.10582	0.29573	0.23007	1.04444	0.21731	0.00762	1.16374	0.27837	-0.01057	1.51862	0.19392 
5302	44.175	0.32682	1.08595	0.24416	0.23019	1.10533	0.29573	0.22986	1.04395	0.21730	0.00766	1.16362	0.27839	-0.01059	1.51861	0.19391 
5303	44.183	0.32670	1.08527	0.24416	0.23011	1.10483	0.29574	0.22966	1.04345	0.21730	0.00771	1.16347	0.27843	-0.01062	1.51861	0.19390 
5304	44.192	0.32657	1.08460	0.24417	0.23002	1.10433	0.29574	0.22946	1.04295	0.21730	0.00777	1.16328	0.27849	-0.01065	1.51860	0.19388 
5305	44.200	0.32644	1.08392	0.24417	0.22992	1.10383	0.29574	0.22925	1.04245	0.21730	0.00785	1.16308	0.27857	-0.01067	1.51860	0.19387 
5306	44.208	0.32630	1.08324	0.24418	0.22983	1.10332	0.29575	0.22904	1.04195	0.21730	0.00791	1.16287	0.27865	-0.01070	1.51860	0.19385 
5307	44.217	0.32615	1.08257	0.24419	0.22972	1.10282	0.29575	0.22883	1.04146	0.21730	0.00795	1.16269	0.27872	-0.01074	1.51859	0.19384 
5308	44.225	0.32600	1.08189	0.24419	0.22961	1.10231	0.29576	0.22860	1.04097	0.21730	0.00796	1.16254	0.27877	-0.01077	1.51859	0.19382 
5309	44.233	0.32584	1.08121	0.24420	0.22948	1.10181	0.29576	0.22838	1.04048	0.21730	0.00795	1.16240	0.27880	-0.01080	1.51859	0.19380 
5310	44.242	0.32568	1.08053	0.24420	0.22935	1.10131	0.29576	0.22814	1.03999	0.21731	0.00794	1.16228	0.27883	-0.01084	1.51859	0.19378 
5311	44.250	0.32551	1.07985	0.24420	0.22921	1.10083	0.29576	0.22790	1.03949	0.21730	0.00792	1.16218	0.27885	-0.01088	1.51859	0.19377 
5312	44.258	0.32534	1.07918	0.24419	0.22907	1.10035	0.29575	0.22764	1.03898	0.21730	0.00790	1.16208	0.27886	-0.01091	1.51859	0.19375 
5313	44.267	0.32517	1.07853	0.24419	0.22893	1.09988	0.29575	0.22737	1.03848	0.21730	0.00788	1.16199	0.27887	-0.01095	1.51859	0.19374 
5314	44.275	0.32499	1.07788	0.24420	0.22878	1.09941	0.29574	0.22711	1.03798	0.21730	0.00784	1.16190	0.27887	-0.01098	1.51859	0.19372 
5315	44.283	0.32481	1.07725	0.24420	0.22862	1.09895	0.29574	0.22684	1.03750	0.21731	0.00780	1.16182	0.27887	-0.01102	1.51859	0.19370 
5316	44.292	0.32463	1.07662	0.24421	0.22847	1.09849	0.29574	0.22658	1.03704	0.21731	0.00775	1.16174	0.27886	-0.01105	1.51859	0.19369 
5317	44.300	0.32443	1.07600	0.24422	0.22831	1.09804	0.29574	0.22633	1.03660	0.21732	0.00769	1.16167	0.27886	-0.01109	1.51860	0.19367 
5318	44.308	0.32424	1.07539	0.24424	0.22814	1.09760	0.29575	0.22608	1.03617	0.21734	0.00763	1.16159	0.27886	-0.01113	1.51860	0.19366 
5319	44.317	0.32405	1.07480	0.24425	0.22798	1.09716	0.29577	0.22583	1.03576	0.21735	0.00756	1.16152	0.27885	-0.01117	1.51861	0.19365 
5320	44.325	0.32385	1.07422	0.24427	0.22781	1.09674	0.29578	0.22558	1.03535	0.21738	0.00749	1.16146	0.27884	-0.01121	1.51862	0.19364 
5321	44.333	0.32365	1.07365	0.24429	0.22765	1.09632	0.29580	0.22533	1.03496	0.21740	0.00743	1.16139	0.27883	-0.01126	1.51862	0.19362 
5322	44.342	0.32345	1.07308	0.24432	0.22749	1.09592	0.29582	0.22508	1.03456	0.21744	0.00736	1.16133	0.27882	-0.01131	1.51863	0.19361 
5323	44.350	0.32325	1.07253	0.24435	0.22733	1.09553	0.29584	0.22483	1.03417	0.21747	0.00728	1.16127	0.27881	-0.01136	1.51864	0.19360 
5324	44.358	0.32306	1.07197	0.24438	0.22717	1.09515	0.29586	0.22458	1.03377	0.21751	0.00721	1.16121	0.27880	-0.01142	1.51864	0.19359 
5325	44.367	0.32287	1.07143	0.24443	0.22702	1.09478	0.29589	0.22434	1.03338	0.21756	0.00715	1.16115	0.27879	-0.01148	1.51865	0.19358 
5326	44.375	0.32269	1.07088	0.24447	0.22687	1.09441	0.29592	0.22410	1.03297	0.21761	0.00708	1.16109	0.27878	-0.01153	1.51866	0.19357 
5327	44.383	0.32251	1.07035	0.24453	0.22672	1.09404	0.29595	0.22385	1.03257	0.21766	0.00702	1.16104	0.27877	-0.01159	1.51867	0.19356 
5328	44.392	0.32234	1.06981	0.24458	0.22658	1.09367	0.29599	0.22361	1.03215	0.21771	0.00696	1.16098	0.27876	-0.01165	1.51868	0.19354 
5329	44.400	0.32218	1.06928	0.24465	0.22644	1.09330	0.29604	0.22336	1.03174	0.21777	0.00690	1.16093	0.27876	-0.01172	1.51869	0.19353 
5330	44.408	0.32201	1.06876	0.24472	0.22630	1.09293	0.29608	0.22312	1.03134	0.21783	0.00685	1.16087	0.27875	-0.01178	1.51870	0.19351 
